<?xml version="1.0" encoding="iso-8859-1"?>
<!-- Uploaded to: SVG Repo, www.svgrepo.com, Generator: SVG Repo Mixer Tools -->
<svg height="800px" width="800px" version="1.1" id="Layer_1" xmlns="http://www.w3.org/2000/svg" xmlns:xlink="http://www.w3.org/1999/xlink" 
	 viewBox="0 0 512 512" xml:space="preserve">
<path style="fill:#003DA8;" d="M445.624,264.493l-14.711-8.494l14.711-8.494c41.776-24.12,56.141-77.73,32.022-119.506
	c-24.12-41.776-77.73-56.14-119.506-32.02l-14.711,8.493V87.485C343.427,39.245,304.182,0,255.943,0l0,0
	c-0.009,0-0.018,0.001-0.027,0.001L245.454,14.47l10.462,16.917c0.009,0,0.019-0.001,0.027-0.001
	c30.934,0,56.099,25.166,56.099,56.099v35.108l-56.099,32.389l-0.027-0.016l-10.462,17.826l10.462,18.446l0.027-0.016l56.099,32.389
	v64.778l-56.099,32.389l-0.027-0.016l-10.462,18.024l10.462,18.249l0.027-0.016l56.099,32.389v35.108
	c0,30.933-25.167,56.099-56.1,56.099c-0.009,0-0.018-0.001-0.027-0.001l-10.462,15.796l10.462,15.589
	c0.009,0,0.019,0.001,0.027,0.001c48.239,0,87.485-39.245,87.485-87.485v-16.987l14.711,8.493
	c13.744,7.935,28.762,11.704,43.595,11.704c30.257,0,59.726-15.693,75.911-43.725C501.765,342.224,487.4,288.613,445.624,264.493z
	 M312.042,353.168l-24.715-14.269l24.715-14.269V353.168z M312.042,187.37l-24.715-14.269l24.715-14.269V187.37z M343.427,140.712
	l30.404-17.554c12.977-7.492,28.094-9.482,42.569-5.604c14.474,3.879,26.572,13.162,34.065,26.139
	c15.467,26.789,6.255,61.166-20.533,76.633l-30.404,17.554l-56.099-32.389v-64.778H343.427z M343.427,241.732l24.715,14.269
	l-24.715,14.269V241.732z M450.465,368.308c-15.467,26.79-49.844,36-76.634,20.533l-30.404-17.554v-64.779l56.099-32.389
	l30.404,17.554C456.72,307.141,465.932,341.519,450.465,368.308z"/>
<path style="fill:#2F91ED;" d="M199.843,424.515v-35.108l56.072-32.373v-36.272l-56.072-32.373v-64.779l56.072-32.373v-36.272
	l-56.072-32.373V87.485c0-30.924,25.151-56.084,56.072-56.098V0.001c-48.227,0.015-87.458,39.254-87.458,87.484v16.987
	l-14.711-8.493C111.969,71.859,58.36,86.223,34.24,128l0,0c-11.684,20.237-14.788,43.813-8.74,66.385s20.524,41.437,40.761,53.121
	l14.711,8.494l-14.711,8.494C24.485,288.613,10.12,342.224,34.24,384.001c16.187,28.036,45.651,43.725,75.911,43.725
	c14.832,0,29.855-3.77,43.595-11.704l14.711-8.493v16.987c0,48.23,39.231,87.469,87.458,87.484v-31.385
	C224.994,480.6,199.843,455.44,199.843,424.515z M199.843,158.832l24.715,14.269l-24.715,14.269V158.832z M199.843,324.63
	l24.715,14.269l-24.715,14.269V324.63z M168.458,371.289l-30.404,17.554c-26.79,15.465-61.167,6.255-76.634-20.533
	c-15.467-26.79-6.255-61.167,20.533-76.634l30.404-17.554l56.099,32.389v64.778H168.458z M168.458,270.269l-24.715-14.269
	l24.715-14.269V270.269z M168.458,205.491l-56.099,32.389l-30.404-17.554c-26.789-15.467-36-49.844-20.533-76.634
	s49.846-35.999,76.634-20.533l30.404,17.554v64.778H168.458z"/>
<path style="fill:#FF0F4D;" d="M294.514,256.001c0-21.268-17.303-38.572-38.572-38.572l-17.99,38.572l17.99,38.572
	C277.211,294.571,294.514,277.268,294.514,256.001z"/>
<path style="fill:#FF6E7A;" d="M255.943,217.429c-0.008,0-0.016,0.001-0.023,0.001c-21.257,0.013-38.548,17.31-38.548,38.571
	c0,21.26,17.29,38.558,38.548,38.571c0.008,0,0.016,0.001,0.023,0.001l0,0L255.943,217.429L255.943,217.429z"/>
<path style="fill:#FF8E00;" d="M205.141,7.591l-10.462,29.166l10.462,29.166c16.108,0,29.166-13.058,29.166-29.166
	S221.249,7.591,205.141,7.591z"/>
<path style="fill:#FFBA00;" d="M175.975,36.758c0,16.108,13.058,29.166,29.166,29.166V7.591
	C189.033,7.591,175.975,20.65,175.975,36.758z"/>
<path style="fill:#FF8E00;" d="M460.352,269.41l-10.462,29.166l10.462,29.167c16.108,0,29.167-13.058,29.167-29.167
	C489.518,282.469,476.46,269.41,460.352,269.41z"/>
<path style="fill:#FFBA00;" d="M431.184,298.578c0,16.108,13.058,29.166,29.166,29.166V269.41
	C444.243,269.41,431.184,282.469,431.184,298.578z"/>
<path style="fill:#FF8E00;" d="M104.288,382.654l-10.462,29.166l10.462,29.166c16.108,0,29.166-13.058,29.166-29.166
	S120.397,382.654,104.288,382.654z"/>
<path style="fill:#FFBA00;" d="M75.122,411.822c0,16.108,13.058,29.167,29.166,29.167v-58.334
	C88.18,382.654,75.122,395.713,75.122,411.822z"/>
</svg>