<?xml version="1.0" encoding="iso-8859-1"?>
<!-- Uploaded to: SVG Repo, www.svgrepo.com, Generator: SVG Repo Mixer Tools -->
<!DOCTYPE svg PUBLIC "-//W3C//DTD SVG 1.1//EN" "http://www.w3.org/Graphics/SVG/1.1/DTD/svg11.dtd">
<svg fill="#000000" height="800px" width="800px" version="1.1" id="Capa_1" xmlns="http://www.w3.org/2000/svg" xmlns:xlink="http://www.w3.org/1999/xlink" 
	 viewBox="0 0 489.709 489.709" xml:space="preserve">
<g>
	<path d="M90.246,423.534c0,2.762,2.239,5,5,5h294.476c2.761,0,5-2.238,5-5s-2.239-5-5-5H95.246
		C92.485,418.534,90.246,420.772,90.246,423.534z"/>
	<path d="M389.722,437.031H95.246c-2.761,0-5,2.238-5,5s2.239,5,5,5h294.476c2.761,0,5-2.238,5-5S392.483,437.031,389.722,437.031z"
		/>
	<path d="M438.354,0H91.508C66.61,0,46.354,20.256,46.354,45.153v386.751c0,42.666,29.421,57.805,54.615,57.805h337.385
		c2.761,0,5-2.238,5-5V5C443.354,2.238,441.116,0,438.354,0z M100.97,479.709c-7.45,0-44.615-2.305-44.615-47.805V45.153
		C56.354,25.77,72.124,10,91.508,10h4.462v312.765c0,2.762,2.239,5,5,5s5-2.238,5-5V10h327.385v366.547H105.97v-15.384
		c0-2.762-2.239-5-5-5s-5,2.238-5,5v15.384h-1.683c-7.628,0-16.297,3.165-24.41,8.912c-2.253,1.597-2.786,4.717-1.189,6.971
		c0.975,1.376,2.518,2.11,4.084,2.109c0.999,0,2.009-0.299,2.886-0.92c6.437-4.561,13.053-7.072,18.628-7.072h339.067v10.396h-20.79
		h-21.418H102.733c-19.277,0-34.961,15.684-34.961,34.961s15.684,34.961,34.961,34.961h309.831c2.761,0,5-2.238,5-5v-54.922h15.79
		v72.766H100.97z M391.146,406.943h16.418v49.922H102.733c-13.764,0-24.961-11.197-24.961-24.961s11.197-24.961,24.961-24.961
		H391.146z"/>
	<path d="M210.614,124.672h6.975c0.404,0,1.478,1.111,1.638,3.171l0.188,2.434c1.994,25.98,3.893,50.598,31.994,53.415v37.806
		h-7.187c-2.761,0-5,2.238-5,5s2.239,5,5,5h24.516c2.761,0,5-2.238,5-5s-2.239-5-5-5h-7.329v-37.711
		c29.246-2.22,31.155-26.919,33.147-53.017l0.225-2.927c0.16-2.06,1.234-3.171,1.638-3.171h6.989c2.761,0,5-2.238,5-5s-2.239-5-5-5
		h-6.989c-6.069,0-11.059,5.33-11.607,12.397l-0.226,2.938c-2.114,27.685-4.106,41.957-23.177,43.757v-49.093h7.329
		c2.761,0,5-2.238,5-5s-2.239-5-5-5h-11.622c-0.233-0.033-0.465-0.071-0.707-0.071s-0.474,0.038-0.707,0.071h-11.48
		c-2.761,0-5,2.238-5,5s2.239,5,5,5h7.187v48.956c-17.948-2.309-19.92-16.715-22.023-44.117l-0.188-2.441
		c-0.548-7.067-5.539-12.397-11.607-12.397h-6.975c-2.761,0-5,2.238-5,5S207.853,124.672,210.614,124.672z"/>
	<path d="M178.839,324.827c0,2.762,2.239,5,5,5h96.686c1.458,0,2.844-0.637,3.794-1.743c0.95-1.107,1.37-2.573,1.148-4.016
		l-8.223-53.588h62.051c11.028,0,20-8.972,20-20v-39.998h22.532c1.763,0,3.396-0.929,4.297-2.443
		c0.902-1.516,0.938-3.394,0.097-4.942l-25.282-46.557c-4.447-54.472-50.198-96.585-104.914-96.585
		c-0.396,0-0.802,0.003-1.199,0.007c-57.222,0.643-103.901,47.73-104.055,104.967c-0.072,26.816,9.883,52.245,28.067,71.845V324.827
		z M254.938,69.962c0.362-0.004,0.723-0.007,1.085-0.007c49.855,0,91.493,38.637,95.026,88.417c0.061,0.86,0.336,1.653,0.771,2.332
		l21.602,39.778h-19.127c-2.761,0-5,2.238-5,5v44.998c0,5.514-4.486,10-10,10h-83.261c-13.523,0-26.586-2.773-38.828-8.244
		c-2.521-1.13-5.479,0.004-6.605,2.524c-1.126,2.521,0.004,5.479,2.525,6.604c13.533,6.049,27.969,9.115,42.908,9.115h11.093
		l7.572,49.347h-85.86v-85.043c0-0.188-0.035-0.368-0.056-0.551c-0.013-0.118-0.014-0.236-0.036-0.354
		c-0.04-0.22-0.108-0.429-0.176-0.638c-0.032-0.099-0.053-0.199-0.092-0.296c-0.088-0.221-0.2-0.426-0.317-0.629
		c-0.045-0.079-0.079-0.161-0.129-0.237c-0.154-0.238-0.332-0.457-0.523-0.665c-0.028-0.031-0.047-0.067-0.077-0.098
		c-0.013-0.013-0.024-0.027-0.037-0.04c-0.012-0.012-0.022-0.025-0.034-0.037c-17.214-17.9-26.659-41.435-26.592-66.284
		C160.911,113.157,203.154,70.543,254.938,69.962z"/>
</g>
</svg>